<?xml version="1.0" encoding="utf-8"?>
<!-- Generator: Adobe Illustrator 26.5.0, SVG Export Plug-In . SVG Version: 6.00 Build 0)  -->
<svg version="1.0" id="katman_1" xmlns="http://www.w3.org/2000/svg" xmlns:xlink="http://www.w3.org/1999/xlink" x="0px" y="0px"
	 viewBox="0 0 1190.55 841.89" style="enable-background:new 0 0 1190.55 841.89;" xml:space="preserve">
<style type="text/css">
	.st0{clip-path:url(#SVGID_00000016795946861329299240000003805103280820607900_);}
	.st1{fill:#FFFFFF;}
	.st2{fill:#014C94;}
	.st3{fill-rule:evenodd;clip-rule:evenodd;fill:#3A8245;}
	.st4{fill:#F0A31F;}
	.st5{fill-rule:evenodd;clip-rule:evenodd;fill:#014C94;}
</style>
<g>
	<defs>
		<rect id="SVGID_1_" x="136" y="291.41" width="918" height="258.19"/>
	</defs>
	<clipPath id="SVGID_00000067206859188647693740000012936526552480929676_">
		<use xlink:href="#SVGID_1_"  style="overflow:visible;"/>
	</clipPath>
	<g style="clip-path:url(#SVGID_00000067206859188647693740000012936526552480929676_);">
		<path class="st1" d="M394.06,291.41H136v258.19h258.06V291.41z"/>
		<path class="st2" d="M384.69,300.76H145.35v239.46h239.34V300.76z"/>
		<path class="st3" d="M384.69,540.22H145.35v-73.38l131.59-78.21l107.75,68.49V540.22z"/>
		<path class="st1" d="M390.35,477.07c-48.96-18.49-84.52-45.12-110.79-82.55c-36.33,41.51-85.6,69.54-139.84,79.53
			c43.37-55.77,74.28-84.11,98.08-113.74c6.42-8,14-17.18,19.02-25.01C333.25,353.86,378.32,421.98,390.35,477.07z"/>
		<path class="st4" d="M286.18,493.9c-11.18-12.36-7.84-27.3,0.06-34.4c5.19-4.66,27.43-3.63,38.86,8.25
			c2.45,2.36,4.31,5.25,5.45,8.46c1.14,3.2,1.52,6.63,1.12,10c-0.41,3.38-1.59,6.61-3.45,9.45c-1.87,2.84-4.36,5.21-7.3,6.92
			c-8.34,5.38-20.27,7.32-34.73-8.66"/>
		<path class="st5" d="M542.28,459.69l-50.47-119.52h-20.76l-50.06,119.52h19.13l11.39-27.97h58.42l11.39,27.97H542.28z
			 M504.84,418.79H456.4l17.71-42.49c2.52-5.86,4.63-11.9,6.3-18.05h0.41c1.55,6.11,3.6,12.09,6.11,17.87L504.84,418.79z"/>
		<path class="st2" d="M669.21,343.7c-12.26-3.4-24.92-5.12-37.63-5.12c-46.19,0-74.28,27.08-74.28,63.74
			c0,37,26.66,58.95,68.18,58.95c15.39-0.02,30.68-2.35,45.38-6.91v-55.58h-18.52v45.15c-7.9,2.12-16.04,3.19-24.22,3.17
			c-30.93,0-50.88-16.99-50.88-46.74c0-31.86,24.22-47.8,52.5-47.8c12.49,0.03,24.88,2.18,36.64,6.37L669.21,343.7z"/>
		<path class="st2" d="M817.26,414.02v-73.83h-18.31v75.07c0,24.09-11.19,32.76-35.21,32.76c-27.68,0-33.99-13.27-33.99-29.74
			v-78.09h-18.72v79.32c0,21.24,8.55,41.96,51.49,41.96c35.81,0,54.74-16.14,54.74-47.45"/>
		<path class="st5" d="M955.95,459.69L905.5,340.17h-20.76l-50.07,119.52h19.13l11.38-27.97h58.42L935,459.69H955.95z
			 M918.52,418.79h-48.44l17.71-42.49c2.52-5.86,4.63-11.9,6.3-18.05h0.41c1.55,6.11,3.59,12.09,6.11,17.87L918.52,418.79z"/>
		<path class="st2" d="M1054,424.45c0-37.36-62.08-27.97-62.08-53.82c0-11.15,9.78-18.59,28.49-18.59
			c8.37,0.09,16.7,1.15,24.82,3.17l1.03-14.51c-8.2-1.41-16.5-2.12-24.82-2.12c-30.93,0-48.84,14.17-48.84,33.81
			c0,38.06,61.87,27.44,61.87,54.35c0,14.7-13.64,20.54-30.11,20.54c-9.6-0.13-19.13-1.62-28.31-4.43l-1.01,15.6
			c9.1,1.92,18.38,2.86,27.68,2.82C1034.66,461.27,1054,445.87,1054,424.45"/>
		<path class="st5" d="M572.23,538.72c-0.08-3.59-0.17-8.05-0.17-11.99V510.1c0-8.31-3.44-13.93-15.41-13.93
			c-5.02,0.04-9.99,1.07-14.61,3.02l0.76,6.45c3.84-2.18,8.17-3.37,12.59-3.44c6.88,0,9.15,3.1,9.15,8.89v3.1
			c-15.77,0-25.09,5.79-25.09,14.94c0,6.62,4.7,10.32,11.58,10.32c3,0.1,5.96-0.72,8.49-2.33c2.53-1.62,4.51-3.96,5.69-6.73h0.17
			c-0.37,2.75-0.51,5.53-0.42,8.3L572.23,538.72z M564.51,520.26c0,6.55-4.53,13.27-11.33,13.27c-0.81,0.09-1.63,0.01-2.41-0.24
			c-0.78-0.25-1.49-0.66-2.09-1.21c-0.6-0.55-1.08-1.22-1.41-1.97c-0.32-0.75-0.49-1.56-0.47-2.37c0-3.76,3.2-8.22,17.71-8.22
			V520.26z"/>
		<path class="st2" d="M637.72,538.73v-29.21c0-7.38-3.01-13.34-12.58-13.34c-3.14-0.11-6.25,0.76-8.88,2.49
			c-2.63,1.73-4.66,4.22-5.82,7.15l-0.17-0.08c0.47-2.88,0.69-5.8,0.66-8.72h-7.29v41.72h7.53v-20.05c0-9.23,4.95-16.2,11.83-16.2
			c5.54,0,7.14,3.44,7.14,9.32v26.93H637.72z"/>
		<path class="st5" d="M705.32,538.72v-61.28h-7.53v19.4c-2.34-0.27-4.69-0.42-7.04-0.44c-13.18,0-21.58,8.81-21.58,23.42
			c0,12.19,5.13,19.65,15.35,19.65c3.01,0.05,5.96-0.81,8.46-2.48c2.5-1.67,4.44-4.05,5.56-6.85l0.16,0.08
			c-0.46,2.8-0.68,5.63-0.66,8.47L705.32,538.72z M697.79,517.14c0,7.31-3.85,16.1-11.41,16.1c-6.3,0-9.23-5.11-9.23-14.09
			c0-12.01,5.28-16.79,13.26-16.79c2.49-0.02,4.98,0.3,7.39,0.93L697.79,517.14z"/>
		<path class="st5" d="M746.82,485.18c0-0.65-0.14-1.29-0.39-1.89c-0.26-0.6-0.63-1.14-1.09-1.59c-0.47-0.45-1.02-0.81-1.63-1.04
			c-0.61-0.24-1.25-0.35-1.9-0.33c-0.66-0.03-1.32,0.08-1.94,0.32c-0.62,0.24-1.18,0.59-1.66,1.05c-0.48,0.46-0.85,1.01-1.11,1.62
			c-0.26,0.61-0.39,1.26-0.39,1.92c0,0.66,0.13,1.32,0.39,1.92c0.26,0.61,0.64,1.16,1.11,1.62c0.48,0.46,1.04,0.82,1.66,1.05
			c0.62,0.24,1.28,0.34,1.94,0.32c1.32,0,2.59-0.52,3.53-1.45C746.26,487.76,746.8,486.5,746.82,485.18L746.82,485.18z
			 M745.57,497.01h-7.56v41.72h7.56V497.01z"/>
		<path class="st2" d="M812.33,538.73v-29.21c0-7.38-3.03-13.34-12.58-13.34c-3.14-0.1-6.24,0.77-8.87,2.49
			c-2.63,1.72-4.66,4.22-5.82,7.15l-0.17-0.08c0.47-2.88,0.7-5.8,0.67-8.72h-7.29v41.72h7.53v-20.05c0-9.23,4.95-16.2,11.83-16.2
			c5.54,0,7.12,3.44,7.12,9.32v26.93H812.33z"/>
		<path class="st5" d="M876.56,538.72c-0.1-3.59-0.16-8.05-0.16-11.99V510.1c0-8.31-3.45-13.93-15.44-13.93
			c-5.02,0.04-9.98,1.07-14.6,3.02l0.74,6.45c3.84-2.18,8.18-3.36,12.59-3.44c6.87,0,9.14,3.1,9.14,8.89v3.1
			c-15.77,0-25.09,5.79-25.09,14.94c0,6.62,4.7,10.32,11.58,10.32c3.01,0.1,5.97-0.72,8.49-2.33c2.53-1.62,4.52-3.96,5.69-6.73h0.17
			c-0.37,2.75-0.51,5.53-0.42,8.3L876.56,538.72z M868.84,520.26c0,6.55-4.53,13.27-11.33,13.27c-0.81,0.09-1.63,0.01-2.4-0.24
			c-0.78-0.25-1.49-0.66-2.09-1.21c-0.6-0.55-1.08-1.22-1.41-1.97c-0.32-0.75-0.48-1.56-0.46-2.37c0-3.76,3.18-8.22,17.69-8.22
			V520.26z"/>
		<path class="st2" d="M935.26,526.21c0-14.02-19.46-9.07-19.46-18.21c0-3.62,2.76-5.96,8.31-5.96c2.85,0.02,5.67,0.47,8.38,1.33
			l0.17-6.29c-2.62-0.53-5.29-0.81-7.97-0.84c-10.91,0-16.7,5.46-16.7,12.51c0,14.7,19.39,8.96,19.39,18.29
			c0,3.85-3.79,6.38-9.32,6.38c-3.1-0.02-6.18-0.5-9.14-1.43l-0.24,6.72c2.9,0.52,5.85,0.77,8.81,0.74
			c11.07,0,17.79-5.71,17.79-13.27"/>
		<path class="st5" d="M959.93,534.84l-2.85-4c-0.31-0.41-0.63-0.85-0.97-1.29c0.83-0.07,1.6-0.46,2.16-1.07
			c0.56-0.61,0.87-1.41,0.86-2.24c0-2.42-1.69-3.33-4.3-3.33c-1.36,0-2.48,0-3.41,0.07v11.87h2.29v-4.91h0.1l3.29,4.91
			L959.93,534.84z M956.74,526.46c0,1.11-0.84,1.79-2.21,1.79c-0.36,0-0.67,0-0.83-0.03v-3.42c0.3-0.04,0.6-0.06,0.9-0.06
			c1.43,0,2.14,0.56,2.14,1.7"/>
		<path class="st2" d="M955.34,518.8c1.99,0,3.94,0.59,5.59,1.7c1.66,1.11,2.95,2.68,3.71,4.53c0.76,1.84,0.96,3.87,0.57,5.82
			c-0.39,1.96-1.35,3.75-2.76,5.16c-1.41,1.41-3.21,2.37-5.16,2.75c-1.96,0.39-3.98,0.19-5.82-0.58c-1.84-0.76-3.41-2.06-4.52-3.72
			c-1.1-1.66-1.69-3.61-1.69-5.6c0-1.32,0.26-2.63,0.77-3.86c0.51-1.22,1.25-2.33,2.19-3.27c0.93-0.94,2.04-1.68,3.27-2.18
			C952.7,519.06,954.01,518.8,955.34,518.8z M955.34,520.27c-1.71,0-3.36,0.5-4.78,1.45c-1.41,0.95-2.52,2.29-3.16,3.86
			c-0.65,1.57-0.82,3.3-0.49,4.97c0.34,1.67,1.15,3.2,2.36,4.41c1.2,1.2,2.73,2.02,4.4,2.36c1.66,0.33,3.4,0.16,4.97-0.49
			c1.57-0.65,2.91-1.75,3.86-3.17c0.95-1.42,1.45-3.08,1.45-4.78c0-2.28-0.9-4.47-2.52-6.09
			C959.8,521.18,957.62,520.27,955.34,520.27z"/>
	</g>
</g>
</svg>
