<?xml version="1.0" encoding="utf-8"?>
<!-- Generator: Adobe Illustrator 27.5.0, SVG Export Plug-In . SVG Version: 6.00 Build 0)  -->
<svg version="1.1" xmlns="http://www.w3.org/2000/svg" xmlns:xlink="http://www.w3.org/1999/xlink" x="0px" y="0px"
	 viewBox="0 0 841.89 566.929" style="enable-background:new 0 0 841.89 566.929;" xml:space="preserve">
<g id="BG">
	<rect y="0" style="fill:#FFFFFF;" width="841.89" height="566.929"/>
</g>
<g id="graphics">
	<g>
		<g>
			<path style="fill:#6C6D6D;" d="M414.192,347.298l-1.201,1.538c-1.121-1.063-2.604-1.706-4.395-1.706
				c-3.049,0-5.232,2.21-5.232,5.428c0,3.218,2.183,5.456,5.232,5.456c1.931,0,3.525-0.671,4.56-1.902l1.26,1.343
				c-1.316,1.596-3.357,2.547-5.903,2.547c-4.281,0-7.302-3.051-7.302-7.443c0-4.393,3.049-7.441,7.302-7.441
				C410.891,345.088,412.851,345.898,414.192,347.298z"/>
			<path style="fill:#6C6D6D;" d="M420.575,348.445c0.979-2.154,2.797-3.329,5.288-3.358v2.21c-3.105-0.057-5.037,1.875-5.288,4.785
				v7.833h-2.184v-14.745h2.184V348.445z"/>
			<path style="fill:#6C6D6D;" d="M441.503,353.397h-12.031c0.393,2.882,2.49,4.701,5.344,4.701c1.819,0,3.415-0.644,4.562-1.847
				l1.203,1.287c-1.4,1.567-3.47,2.463-5.932,2.463c-4.337,0-7.33-3.051-7.33-7.443c0-4.393,3.021-7.441,7.302-7.441
				C439.377,345.088,441.727,348.389,441.503,353.397z M439.545,351.605c-0.141-2.825-2.043-4.616-4.925-4.616
				c-2.798,0-4.811,1.818-5.148,4.616H439.545z"/>
			<path style="fill:#6C6D6D;" d="M454.403,357.65c-1.176,1.595-3.051,2.378-5.4,2.378c-3.05,0-5.009-1.959-5.009-4.504
				c0-2.574,2.044-4.197,5.512-4.226h4.842v-0.866c0-2.156-1.345-3.443-3.945-3.443c-1.623,0-3.134,0.616-4.674,1.681l-0.921-1.597
				c1.9-1.258,3.497-1.985,6.015-1.985c3.638,0,5.65,1.93,5.679,5.092l0.028,9.736h-2.126V357.65z M454.375,354.825v-1.764h-4.588
				c-2.463,0-3.749,0.756-3.749,2.379c0,1.622,1.314,2.686,3.385,2.686C451.913,358.126,453.815,356.866,454.375,354.825z"/>
			<path style="fill:#6C6D6D;" d="M469.011,358.909c-1.035,0.699-2.155,1.092-3.33,1.119c-2.155,0-3.75-1.287-3.75-4.196v-8.422
				h-2.126v-1.763h2.126v-3.89h2.154v3.89l4.673-0.028v1.791h-4.673v8.03c0,1.79,0.699,2.462,1.959,2.462
				c0.756,0,1.538-0.252,2.35-0.756L469.011,358.909z"/>
			<path style="fill:#6C6D6D;" d="M474.802,340.946c0,0.867-0.615,1.51-1.427,1.51c-0.812,0-1.428-0.643-1.428-1.51
				c0-0.868,0.616-1.51,1.428-1.51C474.186,339.437,474.802,340.078,474.802,340.946z M472.311,359.916v-14.745h2.154v14.745
				H472.311z"/>
			<path style="fill:#6C6D6D;" d="M483.085,359.916l-5.847-14.745h2.321l4.7,12.479l4.673-12.479h2.211l-5.792,14.745H483.085z"/>
			<path style="fill:#6C6D6D;" d="M505.944,353.397h-12.031c0.392,2.882,2.489,4.701,5.345,4.701c1.817,0,3.414-0.644,4.561-1.847
				l1.203,1.287c-1.4,1.567-3.47,2.463-5.932,2.463c-4.338,0-7.33-3.051-7.33-7.443c0-4.393,3.02-7.441,7.302-7.441
				C503.818,345.088,506.169,348.389,505.944,353.397z M503.985,351.605c-0.141-2.825-2.042-4.616-4.924-4.616
				c-2.798,0-4.813,1.818-5.148,4.616H503.985z"/>
			<path style="fill:#6C6D6D;" d="M517.502,359.916v-20.761h2.182v20.761H517.502z"/>
			<path style="fill:#6C6D6D;" d="M537.844,353.397h-12.031c0.392,2.882,2.49,4.701,5.344,4.701c1.818,0,3.413-0.644,4.56-1.847
				l1.203,1.287c-1.398,1.567-3.469,2.463-5.932,2.463c-4.337,0-7.33-3.051-7.33-7.443c0-4.393,3.021-7.441,7.304-7.441
				C535.717,345.088,538.067,348.389,537.844,353.397z M535.885,351.605c-0.141-2.825-2.042-4.616-4.923-4.616
				c-2.798,0-4.814,1.818-5.149,4.616H535.885z"/>
			<path style="fill:#6C6D6D;" d="M549.205,358.909c-1.035,0.699-2.154,1.092-3.33,1.119c-2.153,0-3.749-1.287-3.749-4.196v-8.422
				H540v-1.763h2.126v-3.89h2.155v3.89l4.672-0.028v1.791h-4.672v8.03c0,1.79,0.699,2.462,1.958,2.462
				c0.755,0,1.539-0.252,2.35-0.756L549.205,358.909z"/>
			<path style="fill:#6C6D6D;" d="M560.118,358.909c-1.035,0.699-2.154,1.092-3.33,1.119c-2.153,0-3.749-1.287-3.749-4.196v-8.422
				h-2.126v-1.763h2.126v-3.89h2.154v3.89l4.674-0.028v1.791h-4.674v8.03c0,1.79,0.7,2.462,1.96,2.462
				c0.754,0,1.538-0.252,2.349-0.756L560.118,358.909z"/>
			<path style="fill:#6C6D6D;" d="M575.899,353.397h-12.031c0.392,2.882,2.49,4.701,5.345,4.701c1.818,0,3.414-0.644,4.56-1.847
				l1.203,1.287c-1.399,1.567-3.469,2.463-5.932,2.463c-4.337,0-7.33-3.051-7.33-7.443c0-4.393,3.021-7.441,7.303-7.441
				C573.773,345.088,576.124,348.389,575.899,353.397z M573.941,351.605c-0.141-2.825-2.043-4.616-4.924-4.616
				c-2.799,0-4.813,1.818-5.149,4.616H573.941z"/>
			<path style="fill:#6C6D6D;" d="M581.833,348.445c0.979-2.154,2.797-3.329,5.288-3.358v2.21c-3.107-0.057-5.036,1.875-5.288,4.785
				v7.833h-2.183v-14.745h2.183V348.445z"/>
			<path style="fill:#6C6D6D;" d="M598.677,346.43l-0.84,1.735c-1.147-0.727-2.629-1.203-4-1.203c-1.65,0-2.91,0.589-2.91,1.958
				c0,3.275,8.227,1.596,8.227,6.884c0,2.909-2.575,4.197-5.4,4.197c-2.099,0-4.252-0.728-5.652-2.07l0.84-1.652
				c1.26,1.176,3.161,1.875,4.897,1.875c1.734,0,3.134-0.643,3.161-2.098c0.085-3.554-8.17-1.735-8.142-6.967
				c0-2.826,2.435-4.001,5.12-4.001C595.74,345.088,597.446,345.591,598.677,346.43z"/>
		</g>
	</g>
	<g>
		<g>
			<path style="fill:#565757;" d="M420.129,275.866v-6.143c0-2.794-1.365-4.193-4.096-4.193h-1.463
				c-2.666,0-3.998,1.399-3.998,4.193v11.604c0,1.302,0.259,2.18,0.78,2.633c0.519,0.456,1.366,1.04,2.536,1.755l8.874,4.778
				c1.949,1.106,3.33,1.967,4.145,2.584c0.812,0.619,1.446,1.366,1.901,2.243c0.453,0.878,0.683,2.552,0.683,5.021v14.921
				c0,7.866-3.771,11.799-11.312,11.799h-5.753c-7.478,0-11.214-4.291-11.214-12.872v-3.511h9.361v3.803
				c0,2.731,1.398,4.097,4.193,4.097h1.658c2.47,0,3.706-1.365,3.706-4.097v-11.897c0-1.3-0.261-2.177-0.78-2.633
				c-0.522-0.454-1.366-1.039-2.536-1.755l-8.874-4.974c-1.951-1.039-3.364-1.916-4.242-2.633c-0.878-0.715-1.511-1.641-1.901-2.778
				c-0.39-1.137-0.585-2.617-0.585-4.438V269.04c0-7.996,3.737-11.994,11.214-11.994h5.85c7.476,0,11.215,3.998,11.215,11.994v6.826
				H420.129z"/>
			<path style="fill:#565757;" d="M467.715,257.046V313.8c0,8.842-3.771,13.262-11.311,13.262h-7.899
				c-7.476,0-11.214-4.453-11.214-13.359v-56.656h9.362v56.949c0,3.056,1.364,4.583,4.095,4.583h3.803
				c2.536,0,3.804-1.527,3.804-4.583v-56.949H467.715z"/>
			<path style="fill:#565757;" d="M476.49,257.046h17.066c7.54,0,11.311,3.998,11.311,11.994v20.772
				c0,7.932-3.739,11.896-11.214,11.896h-7.802v25.354h-9.361V257.046z M485.852,293.224h5.948c2.471,0,3.705-1.365,3.705-4.096
				v-19.503c0-2.73-1.398-4.095-4.192-4.095h-5.461V293.224z"/>
			<path style="fill:#565757;" d="M512.276,257.046h18.333c7.15,0,10.727,3.998,10.727,11.994v17.26
				c0,6.111-1.852,9.98-5.558,11.605l6.533,29.156h-8.874l-6.144-28.279h-5.655v28.279h-9.362V257.046z M521.639,290.786h6.143
				c2.795,0,4.193-1.689,4.193-5.071v-15.114c0-3.38-1.398-5.071-4.193-5.071h-6.143V290.786z"/>
			<path style="fill:#565757;" d="M549.137,327.062v-70.016h23.209v8.484h-13.847v21.258h12.286v8.484h-12.286v23.306h13.847v8.483
				H549.137z"/>
			<path style="fill:#565757;" d="M598.089,298.197l8.679-41.151h10.336v70.016h-9.36l0.975-45.832l-7.021,33.155h-7.216
				l-7.022-33.155l0.977,45.832h-9.362v-70.016h10.337L598.089,298.197z"/>
			<path style="fill:#565757;" d="M625.88,327.062v-70.016h23.209v8.484h-13.847v21.258h12.286v8.484h-12.286v23.306h13.847v8.483
				H625.88z"/>
		</g>
	</g>
	<g>
		<g>
			<g>
				
					<linearGradient id="SVGID_1_" gradientUnits="userSpaceOnUse" x1="354.8067" y1="734.603" x2="201.2396" y2="724.2668" gradientTransform="matrix(1 0 0 1 36.8984 -511.7598)">
					<stop  offset="0" style="stop-color:#00C4FF"/>
					<stop  offset="1" style="stop-color:#001973"/>
				</linearGradient>
				<path style="fill:url(#SVGID_1_);" d="M374.089,170.877c0.507,18.413-7.197,30.319-22.875,39.512
					c-19.197,11.257-39.035,22.84-58.363,33.962c-21.418,12.324-26.75,27.392-11.37,47.26c-5.001,10.963-22.429,8.948-32.046,7.358
					c-10.774-6.551-13.911-20.868-13.299-32.585c0.87-16.655,9.698-32.504,21.793-43.769
					c38.635-29.125,77.316-58.189,116.059-87.171C373.986,147.255,374.024,159.066,374.089,170.877z"/>
				
					<linearGradient id="SVGID_00000052080347484018601520000014832338840290604191_" gradientUnits="userSpaceOnUse" x1="293.2112" y1="276.821" x2="209.4152" y2="271.181" gradientTransform="matrix(1 0 0 1 13.5312 11.9297)">
					<stop  offset="0" style="stop-color:#001973"/>
					<stop  offset="1" style="stop-color:#00C4FF"/>
				</linearGradient>
				<path style="fill:url(#SVGID_00000052080347484018601520000014832338840290604191_);" d="M281.481,291.611
					c0,0-2.338-1.894-6.19-5.329c-18.263-16.282-42.103-41.456-17.362-63.667c-8.151,6.176-14.967,13.639-20.846,21.509
					c-17.504,23.436-14.096,61.142-13.254,89.269c0.405,13.523,16.379,16.522,26.538,11.116c11.189-5.952,23.124-12.632,33.95-18.46
					C300.925,317.108,292.753,300.681,281.481,291.611z"/>
			</g>
			<g>
				
					<linearGradient id="SVGID_00000055665862353184794720000014328033159639702919_" gradientUnits="userSpaceOnUse" x1="1076.0028" y1="3787.1021" x2="922.4371" y2="3776.7661" gradientTransform="matrix(-1 0 0 -1 1282.7871 4149.9082)">
					<stop  offset="0" style="stop-color:#00C4FF"/>
					<stop  offset="1" style="stop-color:#001973"/>
				</linearGradient>
				<path style="fill:url(#SVGID_00000055665862353184794720000014328033159639702919_);" d="M224.4,414.772
					c-0.507-18.414,7.194-30.319,22.877-39.512c19.201-11.254,39.036-22.846,58.359-33.964
					c21.414-12.32,26.753-27.393,11.372-47.259c5.004-10.964,22.429-8.947,32.048-7.358c10.77,6.554,13.904,20.874,13.295,32.586
					c-0.865,16.645-9.701,32.503-21.789,43.769c-38.637,29.124-77.318,58.186-116.061,87.171
					C224.502,438.394,224.466,426.584,224.4,414.772z"/>
				
					<linearGradient id="SVGID_00000090269057663136998470000008254352449783341999_" gradientUnits="userSpaceOnUse" x1="1014.4069" y1="3329.3203" x2="930.6078" y2="3323.6802" gradientTransform="matrix(-1 0 0 -1 1306.1543 3626.2188)">
					<stop  offset="0" style="stop-color:#001973"/>
					<stop  offset="1" style="stop-color:#00C4FF"/>
				</linearGradient>
				<path style="fill:url(#SVGID_00000090269057663136998470000008254352449783341999_);" d="M317.009,294.038
					c0,0,2.337,1.895,6.189,5.328c18.27,16.288,42.098,41.449,17.365,63.668c8.151-6.175,14.961-13.638,20.841-21.508
					c17.51-23.438,14.105-61.148,13.257-89.27c-0.408-13.525-16.376-16.522-26.538-11.117c-11.191,5.952-23.124,12.629-33.95,18.461
					C297.566,268.545,305.736,284.965,317.009,294.038z"/>
			</g>
		</g>
	</g>
</g>
</svg>
