<?xml version="1.0" encoding="utf-8"?>
<!-- Generator: Adobe Illustrator 22.1.0, SVG Export Plug-In . SVG Version: 6.00 Build 0)  -->
<svg version="1.1" id="Capa_1" xmlns="http://www.w3.org/2000/svg" xmlns:xlink="http://www.w3.org/1999/xlink" x="0px" y="0px"
	 viewBox="0 0 792 612" style="enable-background:new 0 0 792 612;" xml:space="preserve">
<style type="text/css">
	.st0{fill:#0F53A0;}
</style>
<g>
	<path class="st0" d="M102.6,335.9c-14.4-12.6-18.2-29.1-18.2-43.3c0-10,3.1-27.3,17.2-40.2c10.6-9.7,24.5-15.6,46.4-15.6
		c9.1,0,14.5,0.6,21.3,1.5c5.6,0.7,10.3,2.1,14.7,2.5c1.6,0.1,2.2,0.9,2.2,1.8c0,1.2-0.4,2.9-0.7,8.1c-0.3,4.8-0.1,12.9-0.4,15.9
		c-0.1,2.2-0.4,3.4-1.8,3.4c-1.2,0-1.5-1.2-1.5-3.2c-0.1-4.6-2.1-9.7-5.7-13.5c-4.8-5.1-16.3-9.1-29.8-9.1
		c-12.8,0-21.1,3.2-27.6,9.1c-10.7,9.8-13.5,23.8-13.5,38c0,34.9,26.6,52.3,46.3,52.3c13.1,0,21-1.5,26.9-8.2c2.5-2.8,4.4-7,5-9.7
		c0.4-2.3,0.7-2.9,1.9-2.9c1,0,1.3,1,1.3,2.2c0,1.8-1.8,14.5-3.2,19.5c-0.7,2.5-1.3,3.2-3.8,4.3c-5.9,2.3-17,3.4-26.4,3.4
		C132.8,351.9,115.9,347.5,102.6,335.9z"/>
	<path class="st0" d="M215.3,281.4c0-22.3,0-26.4-0.3-31.1c-0.3-5-1.5-7.3-6.3-8.4c-1.2-0.3-3.7-0.4-5.7-0.4c-1.6,0-2.5-0.3-2.5-1.3
		s1-1.3,3.2-1.3c4,0,8.2,0.1,11.9,0.1c3.8,0.1,7.2,0.3,9.3,0.3c4.7,0,33.9,0,36.7-0.1c2.8-0.3,5.1-0.6,6.3-0.9
		c0.7-0.1,1.6-0.6,2.3-0.6c0.7,0,0.9,0.6,0.9,1.3c0,1-0.7,2.8-1.2,9.5c-0.1,1.5-0.4,7.9-0.7,9.7c-0.1,0.7-0.4,1.6-1.5,1.6
		s-1.3-0.7-1.3-2.1c0-1-0.1-3.5-0.9-5.3c-1-2.6-2.5-4.4-9.8-5.3c-2.5-0.3-17.9-0.6-20.9-0.6c-0.7,0-1,0.4-1,1.5v37.1
		c0,1,0.1,1.6,1,1.6c3.2,0,20.1,0,23.5-0.3c3.5-0.3,5.7-0.7,7-2.2c1-1.2,1.6-1.9,2.3-1.9c0.6,0,1,0.3,1,1.2c0,0.9-0.6,3.2-1.2,10.7
		c-0.1,2.9-0.6,8.8-0.6,9.8c0,1.2,0,2.8-1.3,2.8c-1,0-1.3-0.6-1.3-1.3c-0.1-1.5-0.1-3.4-0.6-5.3c-0.7-2.9-2.8-5.1-8.2-5.7
		c-2.8-0.3-17.3-0.4-20.9-0.4c-0.7,0-0.9,0.6-0.9,1.5v11.6c0,5-0.1,18.5,0,22.8c0.3,10.1,2.6,12.3,17.6,12.3c3.8,0,10,0,13.8-1.8
		c3.8-1.8,5.6-4.8,6.6-10.9c0.3-1.6,0.6-2.2,1.6-2.2c1.2,0,1.2,1.2,1.2,2.6c0,3.4-1.2,13.4-1.9,16.3c-1,3.8-2.3,3.8-7.9,3.8
		c-11,0-19.1-0.3-25.4-0.4c-6.3-0.3-10.9-0.4-15.3-0.4c-1.6,0-4.8,0-8.4,0.1c-3.4,0-7.2,0.3-10.1,0.3c-1.9,0-2.9-0.4-2.9-1.5
		c0-0.7,0.6-1.2,2.3-1.2c2.2,0,4-0.3,5.3-0.6c2.9-0.6,3.7-3.8,4.3-8.1c0.7-6.2,0.7-17.8,0.7-31.3V281.4z"/>
	<path class="st0" d="M325.2,247.1l-21.9,0.6c-8.5,0.3-12,1-14.2,4.3c-1.5,2.2-2.2,4-2.5,5.1c-0.3,1.2-0.7,1.8-1.6,1.8
		c-1,0-1.3-0.7-1.3-2.3c0-2.3,2.8-15.7,3.1-16.9c0.4-1.9,0.9-2.8,1.8-2.8c1.2,0,2.6,1.5,6.3,1.8c4.3,0.4,9.8,0.7,14.7,0.7h58.1
		c4.7,0,7.9-0.4,10.1-0.7c2.2-0.4,3.4-0.7,4-0.7c1,0,1.2,0.9,1.2,3.1c0,3.1-0.4,13.2-0.4,17c-0.1,1.5-0.4,2.3-1.3,2.3
		c-1.2,0-1.5-0.7-1.6-2.9l-0.1-1.6c-0.3-3.8-4.3-7.9-17.3-8.2l-18.5-0.4v60.2c0,13.5,0,25.1,0.7,31.4c0.4,4.1,1.3,7.3,5.7,7.9
		c2.1,0.3,5.3,0.6,7.5,0.6c1.6,0,2.3,0.4,2.3,1.2c0,1-1.2,1.5-2.8,1.5c-9.7,0-18.9-0.4-23.1-0.4c-3.4,0-12.6,0.4-18.5,0.4
		c-1.9,0-2.9-0.4-2.9-1.5c0-0.7,0.6-1.2,2.3-1.2c2.2,0,4-0.3,5.3-0.6c2.9-0.6,3.8-3.8,4.3-8.1c0.7-6.2,0.7-17.8,0.7-31.3V247.1z"/>
	<path class="st0" d="M407.4,281.4c0-22.3,0-26.4-0.3-31.1c-0.3-5-1.8-7.5-5-8.2c-1.6-0.4-3.5-0.6-5.3-0.6c-1.5,0-2.3-0.3-2.3-1.5
		c0-0.9,1.2-1.2,3.5-1.2c5.6,0,14.8,0.4,19.1,0.4c3.7,0,12.3-0.4,17.9-0.4c1.9,0,3.1,0.3,3.1,1.2c0,1.2-0.9,1.5-2.3,1.5
		c-1.5,0-2.6,0.1-4.4,0.4c-4,0.7-5.1,3.2-5.4,8.4c-0.3,4.7-0.3,8.8-0.3,31.1v25.8c0,14.2,0,25.8,0.6,32.2c0.4,4,1.5,6.6,5.9,7.2
		c2.1,0.3,5.3,0.6,7.5,0.6c1.6,0,2.3,0.4,2.3,1.2c0,1-1.2,1.5-2.8,1.5c-9.7,0-18.9-0.4-22.9-0.4c-3.4,0-12.6,0.4-18.5,0.4
		c-1.9,0-2.9-0.4-2.9-1.5c0-0.7,0.6-1.2,2.3-1.2c2.2,0,4-0.3,5.3-0.6c2.9-0.6,3.8-3.1,4.3-7.3c0.7-6.2,0.7-17.8,0.7-32V281.4z"/>
	<path class="st0" d="M464.9,281.4c0-22.3,0-26.4-0.3-31.1c-0.3-5-1.5-7.3-6.3-8.4c-1.2-0.3-3.7-0.4-5.7-0.4c-1.6,0-2.5-0.3-2.5-1.3
		s1-1.3,3.2-1.3c7.8,0,17,0.4,21.4,0.4c3.5,0,12.8-0.4,18.1-0.4c2.2,0,3.2,0.3,3.2,1.3s-0.9,1.3-2.3,1.3c-1.6,0-2.5,0.1-4.3,0.4
		c-4,0.7-5.1,3.2-5.4,8.4c-0.3,4.7-0.3,8.8-0.3,31.1V302c0,21.3,4.3,30.2,11.5,36.1c6.6,5.4,13.4,6,18.4,6c6.5,0,14.4-2.1,20.3-7.9
		c8.1-8.1,8.5-21.3,8.5-36.4v-18.4c0-22.3,0-26.4-0.3-31.1c-0.3-5-1.5-7.3-6.3-8.4c-1.2-0.3-3.7-0.4-5.3-0.4c-1.6,0-2.5-0.3-2.5-1.3
		s1-1.3,3.1-1.3c7.5,0,16.7,0.4,16.9,0.4c1.8,0,11-0.4,16.7-0.4c2.1,0,3.1,0.3,3.1,1.3s-0.9,1.3-2.6,1.3c-1.6,0-2.5,0.1-4.3,0.4
		c-4,0.7-5.1,3.2-5.4,8.4c-0.3,4.7-0.3,8.8-0.3,31.1v15.7c0,16.3-1.6,33.6-13.9,44.2c-10.4,9-21,10.6-30.5,10.6
		c-7.8,0-21.9-0.4-32.6-10.1c-7.5-6.8-13.1-17.6-13.1-38.9V281.4z"/>
	<path class="st0" d="M596.1,335.9c-14.4-12.6-18.2-29.1-18.2-43.3c0-10,3.1-27.3,17.2-40.2c10.6-9.7,24.5-15.6,46.4-15.6
		c9.1,0,14.5,0.6,21.3,1.5c5.6,0.7,10.3,2.1,14.7,2.5c1.6,0.1,2.2,0.9,2.2,1.8c0,1.2-0.4,2.9-0.7,8.1c-0.3,4.8-0.1,12.9-0.4,15.9
		c-0.1,2.2-0.4,3.4-1.8,3.4c-1.2,0-1.5-1.2-1.5-3.2c-0.1-4.6-2.1-9.7-5.7-13.5c-4.8-5.1-16.3-9.1-29.8-9.1
		c-12.8,0-21.1,3.2-27.6,9.1c-10.7,9.8-13.5,23.8-13.5,38c0,34.9,26.6,52.3,46.3,52.3c13.1,0,21-1.5,26.9-8.2c2.5-2.8,4.4-7,5-9.7
		c0.4-2.3,0.7-2.9,1.9-2.9c1,0,1.3,1,1.3,2.2c0,1.8-1.8,14.5-3.2,19.5c-0.7,2.5-1.3,3.2-3.8,4.3c-5.9,2.3-17,3.4-26.4,3.4
		C626.3,351.9,609.4,347.5,596.1,335.9z"/>
</g>
</svg>
