<?xml version="1.0" encoding="utf-8"?>
<!-- Generator: Adobe Illustrator 27.5.0, SVG Export Plug-In . SVG Version: 6.00 Build 0)  -->
<svg version="1.1" xmlns="http://www.w3.org/2000/svg" xmlns:xlink="http://www.w3.org/1999/xlink" x="0px" y="0px"
	 viewBox="0 0 500 500" style="enable-background:new 0 0 500 500;" xml:space="preserve">
<g id="BACKGROUND">
	<rect style="fill:#FFFFFF;" width="500" height="500"/>
</g>
<g id="OBJECTS">
	<g>
		<g>
			<text transform="matrix(1 0 0 1 122.4238 374.4339)" style="fill:#282828; font-family:'Raleway-Black'; font-size:42.0338px;">LOGO NAME</text>
			
				<text transform="matrix(1 0 0 1 124.7187 395.3323)" style="fill:#282828; font-family:'Raleway-Medium'; font-size:15.4531px; letter-spacing:6;">YOUR SLOGAN HERE</text>
		</g>
		<g>
			<g>
				<g>
					<linearGradient id="SVGID_1_" gradientUnits="userSpaceOnUse" x1="175.4206" y1="253.5226" x2="175.4206" y2="101.1914">
						<stop  offset="0.1237" style="stop-color:#636163"/>
						<stop  offset="0.3526" style="stop-color:#5A585A"/>
						<stop  offset="0.7286" style="stop-color:#414041"/>
						<stop  offset="1" style="stop-color:#2B2B2B"/>
					</linearGradient>
					<path style="fill:url(#SVGID_1_);" d="M228.32,126.191l-35.038-20.23c-11.018-6.36-24.706-6.36-35.723,0l-35.038,20.229
						c-11.017,6.361-17.861,18.215-17.861,30.937v40.459c0,12.722,6.844,24.576,17.861,30.937l1.222,0.705V227h28.333v-14.9
						l-15.055-8.692c-2.073-1.197-3.361-3.428-3.361-5.822v-40.459c0-2.394,1.288-4.625,3.361-5.822l35.038-20.229
						c1.037-0.599,2.199-0.898,3.362-0.898c1.162,0,2.325,0.299,3.361,0.897l35.038,20.23c2.073,1.197,3.361,3.427,3.361,5.822
						v15.539h29v-15.539C246.181,144.405,239.337,132.551,228.32,126.191z"/>
				</g>
				<g>
					
						<linearGradient id="SVGID_00000160181581495602179230000000879551121546501555_" gradientUnits="userSpaceOnUse" x1="104.6601" y1="145.9093" x2="246.1811" y2="145.9093">
						<stop  offset="0" style="stop-color:#004FFF"/>
						<stop  offset="0.0158" style="stop-color:#0153FF"/>
						<stop  offset="0.2454" style="stop-color:#0D81FF"/>
						<stop  offset="0.4644" style="stop-color:#17A6FF"/>
						<stop  offset="0.6674" style="stop-color:#1EC0FF"/>
						<stop  offset="0.8486" style="stop-color:#23D0FF"/>
						<stop  offset="0.9897" style="stop-color:#24D6FF"/>
					</linearGradient>
					<path style="fill:url(#SVGID_00000160181581495602179230000000879551121546501555_);" d="M246.181,165.333v-8.206
						c0-12.722-6.844-24.576-17.861-30.936l-35.038-20.23c-11.018-6.36-24.706-6.36-35.723,0l-35.038,20.229
						c-11.017,6.361-17.861,18.215-17.861,30.937v33.5c0-12.722,6.844-24.576,17.861-30.937l14.353-8.287
						c0.051-0.031,0.096-0.069,0.147-0.099l35.038-20.229c1.037-0.599,2.199-0.898,3.362-0.898c1.162,0,2.325,0.299,3.361,0.897
						l35.038,20.23c0.051,0.029,0.095,0.066,0.145,0.097l14.355,8.288c2.717,1.569,5.178,3.474,7.348,5.642H246.181z"/>
				</g>
				<g>
					
						<linearGradient id="SVGID_00000039837257918844272950000005572690776868854435_" gradientUnits="userSpaceOnUse" x1="176.119" y1="318.1891" x2="176.119" y2="209.0651">
						<stop  offset="0.1237" style="stop-color:#636163"/>
						<stop  offset="0.3526" style="stop-color:#5A585A"/>
						<stop  offset="0.7286" style="stop-color:#414041"/>
						<stop  offset="1" style="stop-color:#2B2B2B"/>
					</linearGradient>
					<path style="fill:url(#SVGID_00000039837257918844272950000005572690776868854435_);" d="M217.181,209.065v53.188
						c0,2.395-1.288,4.626-3.361,5.822l-35.038,20.229c-2.073,1.196-4.65,1.197-6.723,0l-28.127-16.238h-37.876
						c2.524,8.785,8.358,16.444,16.465,21.125l35.038,20.229c5.509,3.181,11.685,4.77,17.862,4.77c6.176,0,12.352-1.59,17.861-4.77
						l35.039-20.23c11.017-6.36,17.86-18.215,17.86-30.936v-53.188H217.181z"/>
				</g>
				
					<linearGradient id="SVGID_00000120542665162751653720000018287907402666448303_" gradientUnits="userSpaceOnUse" x1="104.6601" y1="273.4709" x2="246.1811" y2="273.4709">
					<stop  offset="0" style="stop-color:#004FFF"/>
					<stop  offset="0.0158" style="stop-color:#0153FF"/>
					<stop  offset="0.2454" style="stop-color:#0D81FF"/>
					<stop  offset="0.4644" style="stop-color:#17A6FF"/>
					<stop  offset="0.6674" style="stop-color:#1EC0FF"/>
					<stop  offset="0.8486" style="stop-color:#23D0FF"/>
					<stop  offset="0.9897" style="stop-color:#24D6FF"/>
				</linearGradient>
				<path style="fill:url(#SVGID_00000120542665162751653720000018287907402666448303_);" d="M228.321,259.689l-14.351,8.285
					c-0.05,0.033-0.097,0.07-0.15,0.1l-35.038,20.229c-2.073,1.196-4.65,1.197-6.723,0l-35.037-20.228
					c-0.051-0.03-0.097-0.066-0.146-0.098l-14.354-8.287c-9.641-5.567-16.086-15.34-17.546-26.218l-0.315-0.195v28.975
					c0,12.721,6.844,24.575,17.861,30.938l35.038,20.229c5.509,3.181,11.685,4.77,17.862,4.77c6.176,0,12.352-1.59,17.861-4.77
					l35.039-20.23c11.017-6.36,17.86-18.215,17.86-30.936v-33.5C246.181,241.474,239.337,253.329,228.321,259.689z"/>
			</g>
			<g>
				<g>
					
						<linearGradient id="SVGID_00000092434662282056058370000012033480422811262616_" gradientUnits="userSpaceOnUse" x1="324.0121" y1="318.1891" x2="324.0121" y2="101.1906">
						<stop  offset="0" style="stop-color:#636163"/>
						<stop  offset="0.3666" style="stop-color:#605F60"/>
						<stop  offset="0.589" style="stop-color:#585658"/>
						<stop  offset="0.773" style="stop-color:#4A494A"/>
						<stop  offset="0.935" style="stop-color:#353535"/>
						<stop  offset="1" style="stop-color:#2B2B2B"/>
					</linearGradient>
					<path style="fill:url(#SVGID_00000092434662282056058370000012033480422811262616_);" d="M393.823,157.128
						c0-12.632-6.752-24.402-17.633-30.794h-17.78V141h-14.798l17.849,10.306c2.073,1.197,3.361,3.428,3.361,5.822l1.517,105.125
						c0,2.394-1.288,4.625-3.361,5.822l-35.038,20.229c-2.074,1.197-4.65,1.197-6.723,0l-35.038-20.229
						c-2.073-1.197-3.361-3.428-3.361-5.822l-1.134-78.586h-29l1.134,78.586c0,12.722,6.844,24.576,17.861,30.937l35.038,20.229
						c5.509,3.18,11.685,4.77,17.861,4.77c6.177,0,12.353-1.59,17.861-4.77l35.038-20.229c11.018-6.361,17.861-18.215,17.861-30.937
						L393.823,157.128z"/>
				</g>
				<g>
					
						<linearGradient id="SVGID_00000075141367031088844070000000723209616705222531_" gradientUnits="userSpaceOnUse" x1="253.8184" y1="273.5079" x2="395.3399" y2="273.5079">
						<stop  offset="0" style="stop-color:#FFE000"/>
						<stop  offset="0.1805" style="stop-color:#FFD700"/>
						<stop  offset="0.4776" style="stop-color:#FFBE00"/>
						<stop  offset="0.8521" style="stop-color:#FF9600"/>
						<stop  offset="1" style="stop-color:#FF8400"/>
					</linearGradient>
					<path style="fill:url(#SVGID_00000075141367031088844070000000723209616705222531_);" d="M377.479,259.764l-35.038,20.229
						c-0.456,0.263-0.923,0.499-1.388,0.74l-13.112,7.57c-2.074,1.197-4.65,1.197-6.723,0l-13.112-7.57
						c-0.465-0.241-0.932-0.477-1.388-0.74l-35.038-20.229c-11.018-6.361-17.861-18.215-17.861-30.937v33.426
						c0,12.722,6.844,24.576,17.861,30.937l35.038,20.229c5.509,3.18,11.685,4.77,17.861,4.77c6.177,0,12.353-1.59,17.861-4.77
						l35.038-20.229c11.018-6.361,17.861-18.215,17.861-30.937v-33.426C395.34,241.548,388.496,253.403,377.479,259.764z"/>
				</g>
				<g>
					
						<linearGradient id="SVGID_00000176751407289452269690000003929861643328262282_" gradientUnits="userSpaceOnUse" x1="164.7161" y1="242.9212" x2="371.8989" y2="130.6001">
						<stop  offset="0" style="stop-color:#FF8400"/>
						<stop  offset="0.1479" style="stop-color:#FF9600"/>
						<stop  offset="0.5224" style="stop-color:#FFBE00"/>
						<stop  offset="0.8195" style="stop-color:#FFD700"/>
						<stop  offset="1" style="stop-color:#FFE000"/>
					</linearGradient>
					<path style="fill:url(#SVGID_00000176751407289452269690000003929861643328262282_);" d="M383.691,131.906
						c-3.375-3.406-8.469-6.24-8.469-6.24c-11.017-6.359-24.65-6.272-35.669,0.089h0l-28.62,16.594l-156.901,95.653
						c-2.801,1.617-7.06,2.623-11.459,2.098l14.986,8.652c5.509,3.18,11.685,4.77,17.861,4.77c6.177,0,14.481-1.676,19.989-4.856
						l131.1-81.841l0.042,0.065l8.447-4.877c0.393-0.273,0.791-0.542,1.195-0.803l19.465-11.286l16.878-9.744
						c5.991-3.459,9.124-4.806,15.234-2.921C387.77,137.26,385.977,134.213,383.691,131.906z"/>
					
						<linearGradient id="SVGID_00000176751662185280638140000001468425951608650418_" gradientUnits="userSpaceOnUse" x1="133.4144" y1="221.0206" x2="341.4952" y2="108.2126">
						<stop  offset="0" style="stop-color:#FF8400"/>
						<stop  offset="0.1479" style="stop-color:#FF9600"/>
						<stop  offset="0.5224" style="stop-color:#FFBE00"/>
						<stop  offset="0.8195" style="stop-color:#FFD700"/>
						<stop  offset="1" style="stop-color:#FFE000"/>
					</linearGradient>
					<path style="fill:url(#SVGID_00000176751662185280638140000001468425951608650418_);" d="M352.107,112.321l-10.934-6.313
						c-11.017-6.359-24.578-6.702-35.596-0.341l-0.563,0.313L119.957,214.211c-2.801,1.617-6.036,3.24-8.985,3.602
						c0,0,4.188,7.479,16.646,13.979c3.703,1.932,5.652,3.064,11.828,3.064c6.177,0,12.353-1.59,17.862-4.77l135.011-83.099
						l0.041,0.065l8.447-4.877c0.393-0.273,0.791-0.542,1.195-0.803l19.465-11.286l16.878-9.744
						c5.991-3.459,12.77-5.021,19.481-4.718L352.107,112.321z"/>
				</g>
			</g>
		</g>
	</g>
</g>
</svg>
