<?xml version="1.0" encoding="UTF-8"?>
<svg xmlns="http://www.w3.org/2000/svg" xmlns:xlink="http://www.w3.org/1999/xlink" width="250px" height="319px" viewBox="0 0 250 319" version="1.1">
<g id="surface1">
<path style=" stroke:none;fill-rule:nonzero;fill:rgb(90.588235%,9.411765%,13.72549%);fill-opacity:1;" d="M 248.332031 186.617188 C 248.332031 220.65625 220.710938 248.25 186.675781 248.25 L 63.335938 248.25 C 29.28125 248.25 1.667969 220.65625 1.667969 186.617188 L 1.667969 63.316406 C 1.667969 29.273438 29.28125 1.667969 63.335938 1.667969 L 186.675781 1.667969 C 220.710938 1.667969 248.332031 29.273438 248.332031 63.316406 Z M 248.332031 186.617188 "/>
<path style=" stroke:none;fill-rule:nonzero;fill:rgb(0%,0%,0%);fill-opacity:1;" d="M 242.144531 304.015625 C 240.277344 303.359375 239.914062 304.964844 239.914062 304.964844 L 239.914062 304.953125 C 239.742188 305.636719 239.507812 306.300781 239.230469 306.933594 C 238.597656 308.378906 235.882812 314.253906 228.417969 314.253906 C 220.757812 314.253906 214.285156 308.71875 214.285156 297.777344 C 214.285156 289.679688 217.894531 280.925781 228.417969 280.925781 C 234.746094 280.925781 237.75 284.703125 238.367188 285.902344 C 238.898438 286.96875 239.371094 288.429688 241.449219 287.648438 C 241.902344 287.46875 242.929688 286.738281 242.234375 285.453125 L 241.726562 284.566406 C 240.796875 283.050781 236.953125 277.855469 228.417969 277.855469 C 217.628906 277.855469 210.714844 285.503906 210.714844 297.777344 C 210.714844 309.21875 217.578125 317.246094 228.417969 317.246094 C 238.246094 317.246094 241.527344 310.332031 242.375 308.476562 C 242.800781 307.554688 243.128906 306.570312 243.394531 305.53125 C 243.570312 304.371094 242.144531 304.015625 242.144531 304.015625 M 194.882812 299.433594 L 180.859375 299.433594 L 180.859375 315.566406 C 180.859375 316.570312 180.058594 317.367188 179.0625 317.367188 C 178.078125 317.367188 177.285156 316.570312 177.285156 315.566406 L 177.285156 279.214844 C 177.285156 278.417969 177.824219 277.90625 178.644531 277.90625 L 194.488281 277.90625 C 200.167969 277.90625 205.910156 281.4375 205.910156 288.394531 C 205.910156 297.144531 198.59375 297.902344 198.59375 297.902344 L 198.59375 298.007812 C 200.660156 298.15625 205.179688 299.75 205.179688 306.492188 C 205.179688 313.570312 206.21875 315.5 206.21875 316.410156 C 206.21875 316.851562 205.886719 317.367188 204.738281 317.367188 C 202.527344 317.367188 202.277344 316.183594 202.074219 312.894531 C 202.046875 312.355469 201.964844 310.171875 201.832031 308.515625 C 201.328125 301.996094 199.324219 299.484375 194.882812 299.433594 M 202.328125 288.914062 C 202.328125 283.910156 199.125 280.957031 194.222656 280.957031 L 180.859375 280.957031 L 180.859375 296.386719 L 194.222656 296.386719 C 198.804688 296.386719 202.328125 293.488281 202.328125 288.914062 M 83.980469 313.570312 C 83.980469 315.832031 85.53125 317.328125 87.792969 317.328125 C 90.074219 317.328125 91.605469 315.832031 91.605469 313.570312 L 91.605469 281.8125 C 91.605469 279.550781 90.050781 277.855469 87.792969 277.855469 C 85.519531 277.855469 83.980469 279.550781 83.980469 281.8125 Z M 60.96875 277.855469 C 50.78125 277.855469 45.171875 282.519531 45.171875 292.738281 L 45.171875 313.414062 C 45.171875 315.703125 46.699219 317.246094 48.972656 317.246094 C 51.210938 317.246094 52.75 315.703125 52.75 313.414062 C 52.75 313.414062 52.796875 294.730469 52.796875 292.738281 C 52.796875 287.089844 55.359375 283.910156 60.992188 283.910156 C 66.660156 283.910156 69.175781 287.089844 69.167969 292.738281 C 69.167969 292.738281 69.15625 309.933594 69.15625 313.414062 C 69.15625 315.703125 70.703125 317.246094 72.96875 317.246094 C 75.246094 317.246094 76.78125 315.703125 76.78125 313.414062 L 76.78125 292.738281 C 76.78125 282.519531 71.167969 277.855469 60.96875 277.855469 M 22.414062 317.265625 C 32.609375 317.265625 38.234375 312.609375 38.234375 302.429688 L 38.234375 281.8125 C 38.234375 279.550781 36.699219 277.855469 34.433594 277.855469 C 32.179688 277.855469 30.644531 279.550781 30.632812 281.8125 L 30.632812 302.429688 C 30.632812 308.0625 28.046875 311.21875 22.414062 311.21875 C 16.734375 311.21875 14.222656 308.0625 14.234375 302.429688 C 14.234375 302.429688 14.246094 285.285156 14.246094 281.8125 C 14.246094 279.550781 12.691406 277.855469 10.433594 277.855469 C 8.148438 277.855469 6.605469 279.550781 6.605469 281.8125 L 6.605469 302.429688 C 6.605469 312.609375 12.226562 317.265625 22.414062 317.265625 M 134.195312 277.90625 C 131.875 277.90625 131.15625 278.960938 130.980469 279.328125 L 118.628906 312.746094 L 106.234375 279.351562 C 106.09375 279.03125 105.40625 277.90625 102.988281 277.90625 C 100.507812 277.90625 100.402344 279.820312 100.402344 279.820312 L 100.402344 315.574219 C 100.402344 316.570312 101.195312 317.367188 102.1875 317.367188 C 103.183594 317.367188 103.984375 316.570312 103.984375 315.574219 L 103.984375 282.996094 L 104.066406 282.996094 L 116.296875 315.71875 C 116.296875 315.71875 116.875 317.367188 118.597656 317.367188 C 120.296875 317.367188 120.953125 315.742188 120.953125 315.730469 L 133.113281 282.996094 L 133.226562 282.996094 L 133.226562 315.574219 C 133.226562 316.570312 134.019531 317.367188 135.015625 317.367188 C 136 317.367188 136.789062 316.570312 136.789062 315.574219 L 136.789062 279.820312 C 136.789062 279.820312 136.695312 277.90625 134.195312 277.90625 M 169.835938 315.996094 C 169.835938 315.996094 170.355469 317.367188 172.222656 317.367188 C 174.078125 317.367188 173.660156 315.996094 173.660156 315.996094 L 159.761719 279.421875 C 159.75 279.386719 159.15625 277.90625 157.175781 277.90625 C 155.175781 277.90625 154.570312 279.425781 154.570312 279.425781 L 154.570312 279.421875 L 140.316406 315.996094 C 140.304688 316.054688 139.886719 317.367188 141.6875 317.367188 C 143.566406 317.367188 144.082031 315.996094 144.082031 315.996094 L 148.402344 304.449219 L 165.464844 304.449219 Z M 149.507812 301.40625 L 157.023438 281.484375 L 164.269531 301.40625 Z M 149.507812 301.40625 "/>
<path style=" stroke:none;fill-rule:nonzero;fill:rgb(100%,100%,100%);fill-opacity:1;" d="M 248.332031 182.859375 C 243.28125 188.636719 229.847656 195.363281 214.683594 195.363281 C 191.480469 195.363281 168.113281 181.554688 165.757812 155.699219 L 163.980469 155.699219 C 152.171875 193.039062 125.976562 198.933594 111.660156 198.933594 C 57.679688 198.933594 58.949219 129.726562 62.152344 97.699219 C 62.90625 90.167969 63.855469 60.8125 78.578125 60.8125 C 90.355469 60.8125 88.867188 72.929688 88.417969 84.371094 C 87.296875 111.78125 79.796875 178.375 118.695312 178.375 C 166.105469 178.375 160.601562 117.792969 166.136719 88.953125 C 168.421875 77.085938 187.535156 77.394531 186.863281 92.453125 C 186.179688 107.96875 185.324219 120.320312 184.566406 136.78125 C 182.066406 190.648438 225.773438 192.074219 248.332031 177.515625 Z M 248.332031 182.859375 "/>
</g>
</svg>
